<?xml version="1.0" encoding="utf-8"?>
<!-- Generator: Adobe Illustrator 17.0.0, SVG Export Plug-In . SVG Version: 6.00 Build 0)  -->
<!DOCTYPE svg PUBLIC "-//W3C//DTD SVG 1.1//EN" "http://www.w3.org/Graphics/SVG/1.1/DTD/svg11.dtd">
<svg version="1.1" id="Layer_1" xmlns="http://www.w3.org/2000/svg" xmlns:xlink="http://www.w3.org/1999/xlink" x="0px" y="0px"
	 width="800px" height="199.16px" viewBox="0 0 800 199.16" enable-background="new 0 0 800 199.16" xml:space="preserve">
<g>
	<path d="M234.82,140.887l0.076-72.445h-13.755V52.547l38.209-6.648l1.376,14.825c0,0,18.418-14.526,34.694-14.29
		c10.546,0.153,28.504,7.642,28.504,30.032c0,0.889,0,64.421,0,64.421h-29.803c0,0,0.256-58.156,0.27-58.68
		c0.341-12.313-5.034-14.402-7.606-14.452c-7.871-0.153-22.543,9.017-22.543,9.017l-0.306,64.115H234.82z"/>
	<path d="M13.679,140.562l0.076-72.445H0V52.222l38.209-6.648l1.376,14.825c0,0,18.418-14.526,34.694-14.29
		c10.546,0.153,28.504,7.642,28.504,30.032c0,0.889,0,64.421,0,64.421H72.98c0,0,0.256-58.156,0.27-58.68
		c0.341-12.313-5.034-14.402-7.606-14.452C57.772,67.277,43.1,76.447,43.1,76.447l-0.306,64.115H13.679z"/>
	<path d="M618.678,140.562l0.076-72.445h-13.755V52.222l38.209-6.648l1.376,14.825c0,0,18.418-14.526,34.694-14.29
		c10.546,0.153,28.504,7.642,28.504,30.032c0,0.889,0,64.421,0,64.421h-29.803c0,0,0.256-58.156,0.27-58.68
		c0.341-12.313-5.034-14.402-7.606-14.452c-7.871-0.153-22.543,9.017-22.543,9.017l-0.306,64.115H618.678z"/>
	<polygon points="383.556,45.249 340.469,52.547 340.469,68.442 354.224,68.442 354.148,140.887 383.263,140.887 	"/>
	<circle cx="368.171" cy="17.395" r="17.729"/>
	<path d="M203.565,122.852l0.917-43.1c0,0,1.223-34.541-36.07-33.853c-2.827,0.052-23.919,0.611-39.738,9.17l6.496,16.354
		c17.041-6.037,26.255-6.633,29.498-6.572c8.1,0.153,10.087,8.406,10.087,11.768v8.712c-10.231,1.669-28.127,3.536-35.382,5.426
		c-18.188,4.738-17.118,24.76-17.118,24.76s0.764,27.856,30.415,27.816c12.719-0.017,27.664-14.214,27.664-14.214l4.432,11.768
		h31.026v-15.895L203.565,122.852z M174.373,115.516c0,0-7.251,7.162-15.895,7.183c-2.928,0.007-8.145-2.445-8.145-9.349
		c0-8.839,7.534-9.909,7.534-9.909l16.506-2.369V115.516z"/>
	<path d="M587.797,122.852l0.917-43.1c0,0,1.223-34.541-36.07-33.853c-2.827,0.052-23.919,0.611-39.738,9.17l6.496,16.354
		c17.041-6.037,26.255-6.633,29.497-6.572c8.1,0.153,10.087,8.406,10.087,11.768v8.712c-10.231,1.669-28.127,3.536-35.382,5.426
		c-18.188,4.738-17.118,24.76-17.118,24.76s0.764,27.856,30.415,27.816c12.719-0.017,27.664-14.214,27.664-14.214l4.432,11.768
		h31.026v-15.895L587.797,122.852z M558.606,115.516c0,0-7.251,7.162-15.895,7.183c-2.928,0.007-8.145-2.445-8.145-9.349
		c0-8.839,7.534-9.909,7.534-9.909l16.506-2.369V115.516z"/>
	<path d="M429.305,127.055l-0.166-1.554c2.873-2.339,11.55-6.669,17.863-9.107c23.118-0.789,41.527-14.667,41.527-34.923
		c0-3.55-0.665-6.974-1.892-10.202h11.864l1.146-22.009h-37.745c-5.22-1.771-10.96-2.751-16.986-2.751
		c-24.086,0-43.612,15.653-43.612,34.961c0,12.71,6.849,24.187,20.957,31.436c-9.62,4.76-17.029,12.008-17.029,12.008v15.131h12.609
		c0,0,3.101,0,5.674,1.092c-4.146,2.194-30.892,10.6-30.128,30.622c0.617,16.177,13.755,27.066,44.781,27.066
		c22.769,0,36.681-6.051,47.762-14.61c13.753-10.623,12.914-24.542,12.915-27.587C498.849,143.332,489.37,124.686,429.305,127.055z
		 M444.656,67.028c8.721,0,12.81,6.305,12.81,15.921c0,11.661-4.547,16.748-11.577,16.748c-7.642,0-13.602-7.489-13.602-17.271
		C432.286,73.104,436.03,67.028,444.656,67.028z M439.928,179.096c-7.285-0.021-17.648-2.98-17.653-13.297
		c-0.006-12.991,21.932-21.779,21.932-21.779s24.759,5.425,24.76,16.048C468.967,173.059,447.729,179.119,439.928,179.096z"/>
	<path d="M761.42,143.714c-16.493-0.667-36.528-4.967-36.528-4.967l5.349-20.022c0,0,18.799,6.266,28.657,6.19
		c1.209-0.009,12.227-0.993,12.227-8.712c0-5.655-9.782-6.343-28.733-15.36c-1.144-0.544-18.067-7.773-18.073-26.135
		c-0.004-10.89,8.024-27.855,39.203-27.855c1.057,0,18.054,0.63,32.784,6.018L790.23,70.41c-14.271-5.617-22.407-5.396-23.155-5.445
		c-9.629-0.63-14.73,3.496-14.672,7.008c0.091,5.602,14.811,9.825,16.048,10.265c34.465,12.263,31.484,29.842,31.484,30.45
		C799.935,136.837,774.641,144.249,761.42,143.714z"/>
</g>
</svg>
